<?xml version="1.0" standalone="no"?>
<!DOCTYPE svg PUBLIC "-//W3C//DTD SVG 20010904//EN"
 "http://www.w3.org/TR/2001/REC-SVG-20010904/DTD/svg10.dtd">
<svg version="1.0" xmlns="http://www.w3.org/2000/svg"
 width="166.000000pt" height="147.000000pt" viewBox="0 0 166.000000 147.000000"
 preserveAspectRatio="xMidYMid meet">
<metadata>
Created by potrace 1.10, written by Peter Selinger 2001-2011
</metadata>
<g transform="translate(0.000000,147.000000) scale(0.100000,-0.100000)"
fill="#000000" stroke="none">
<path d="M887 1143 c-33 -13 -44 -14 -77 -3 -46 15 -66 9 -81 -24 -10 -20 -8
-30 10 -55 21 -29 22 -37 18 -268 -2 -131 -7 -251 -11 -268 -6 -25 -2 -35 25
-63 42 -42 83 -64 106 -55 10 4 33 18 51 31 17 13 32 20 32 15 0 -14 -29 -38
-77 -62 -24 -12 -50 -32 -59 -46 -15 -23 -15 -27 1 -51 15 -24 21 -26 62 -20
91 12 225 103 266 180 19 37 22 59 25 210 2 93 1 184 -3 203 -8 45 -82 123
-117 123 -14 0 -37 -9 -51 -20 -14 -11 -30 -20 -36 -20 -20 0 -11 64 14 105
29 48 31 67 7 88 -23 21 -55 21 -105 0z m93 -28 c0 -8 -9 -19 -19 -24 -29 -16
-41 -65 -41 -163 l0 -90 66 61 c37 34 70 61 73 61 4 0 23 -16 42 -36 l34 -35
3 -190 c3 -188 3 -191 -22 -234 -29 -49 -111 -109 -200 -145 -47 -19 -59 -21
-66 -9 -7 10 9 23 58 49 108 59 112 68 112 286 0 100 -3 189 -6 198 -9 24 -24
20 -61 -16 l-33 -32 0 -120 c0 -107 2 -122 21 -142 l20 -21 -51 -38 -50 -37
-37 28 c-20 16 -41 32 -47 36 -6 4 -3 16 7 32 15 22 17 58 17 271 l0 246 -26
26 c-38 38 -16 53 33 21 l38 -24 54 28 c60 31 81 35 81 13z m0 -446 c0 -64 -4
-98 -10 -94 -6 3 -10 48 -10 101 0 56 4 94 10 94 6 0 10 -40 10 -101z"/>
<path d="M605 1100 c-12 -4 -26 -15 -34 -23 -16 -20 -160 -542 -161 -583 0
-72 80 -87 128 -23 11 15 162 555 162 581 0 21 -38 58 -58 57 -9 0 -26 -4 -37
-9z m61 -46 c-3 -9 -40 -140 -81 -291 -41 -150 -77 -278 -80 -282 -6 -11 -65
-20 -65 -10 0 5 31 122 69 261 38 139 74 272 80 296 11 39 14 42 47 42 29 0
35 -3 30 -16z"/>
<path d="M198 846 c-149 -61 -178 -84 -178 -136 0 -53 26 -72 184 -136 131
-53 138 -55 161 -40 32 21 42 62 24 95 -8 14 -38 37 -66 51 -29 14 -52 29 -50
34 2 5 21 15 43 23 44 15 84 57 84 89 0 28 -37 74 -58 74 -9 -1 -74 -25 -144
-54z m162 -14 l0 -37 -115 -40 c-63 -22 -111 -43 -107 -46 4 -3 55 -23 115
-44 l107 -38 0 -37 0 -38 -152 64 c-153 63 -153 63 -153 95 0 33 0 33 150 95
83 35 151 63 153 64 1 0 2 -17 2 -38z"/>
<path d="M1264 875 c-13 -13 -24 -35 -24 -49 0 -36 43 -81 90 -95 49 -15 48
-30 -6 -48 -77 -26 -108 -97 -61 -141 13 -12 29 -22 35 -22 7 0 72 25 145 55
152 63 182 88 173 144 -3 19 -13 43 -23 52 -17 16 -212 101 -276 120 -24 7
-33 4 -53 -16z m253 -106 c61 -23 63 -25 63 -59 l0 -36 -150 -61 -150 -61 0
37 0 37 115 40 c63 21 111 42 107 45 -4 3 -55 23 -114 43 l-108 38 0 38 0 38
88 -38 c48 -20 115 -48 149 -61z"/>
</g>
</svg>
